<?xml version="1.0" standalone="no"?>
<!DOCTYPE svg PUBLIC "-//W3C//DTD SVG 1.1//EN" "http://www.w3.org/Graphics/SVG/1.1/DTD/svg11.dtd" >
<svg xmlns="http://www.w3.org/2000/svg">
<metadata>Generated by IcoMoon</metadata>
<defs>
<font id="icomoon" horiz-adv-x="1024">
<font-face units-per-em="1024" ascent="960" descent="-64" />
<missing-glyph horiz-adv-x="1024" />
<glyph unicode="&#x20;" d="" horiz-adv-x="512" />
<glyph unicode="&#xe600;" d="M800 896h-576c-70.4 0-128-57.6-128-128v-576c0-70.4 57.6-128 128-128h576c70.4 0 128 57.6 128 128v576c0 70.4-57.6 128-128 128zM268.8 736c38.4 0 64-25.6 64-57.6s-25.6-57.6-64-57.6c-38.4 0-64 25.6-64 57.6s25.6 57.6 64 57.6zM320 390.4c-19.2-51.2-12.8-32-76.8-179.2l-96 57.6c0 0 108.8 96 128 140.8 25.6 44.8-25.6 70.4-25.6 70.4l-76.8 57.6 38.4 64c57.6-44.8 57.6-44.8 96-83.2 32-32 32-70.4 12.8-128zM851.2 326.4c-19.2-179.2-249.6-108.8-249.6-108.8l12.8 51.2 51.2-12.8c102.4-6.4 89.6 83.2 89.6 83.2v243.2c0 96-89.6 108.8-249.6 44.8l38.4-12.8c-6.4-6.4-19.2-25.6-38.4-44.8h224v-44.8h-128v-44.8h134.4v-44.8h-134.4v-102.4c19.2 6.4 38.4 12.8 51.2 25.6l-12.8 44.8 57.6 19.2 51.2-115.2-70.4-32-12.8 44.8c-32-25.6-96-57.6-211.2-57.6-121.6 0-89.6 140.8-89.6 140.8v6.4h83.2c0-19.2-6.4-51.2 0-70.4 6.4-12.8 32-19.2 51.2-19.2 0 0-12.8 0 12.8 0v115.2h-134.4v44.8h134.4v44.8h-44.8c-25.6-25.6-51.2-51.2-51.2-51.2l-38.4 32c25.6 25.6 51.2 76.8 70.4 102.4-12.8-6.4-25.6-6.4-44.8-12.8-12.8-19.2-25.6-38.4-44.8-57.6 0 0-64 32-64 32 64 57.6 102.4 172.8 102.4 172.8l89.6-25.6c0 0-6.4-19.2-25.6-44.8 358.4 102.4 377.6-64 377.6-64s32-108.8 12.8-281.6z" />
<glyph unicode="&#xe603;" d="M928 768c0 70.4-57.6 128-128 128h-576c-70.4 0-128-57.6-128-128v-576c0-70.4 57.6-128 128-128h576c70.4 0 128 57.6 128 128v576zM774.4 377.6v0-6.4l6.4-6.4v6.4l-6.4 6.4h-6.4v-6.4l-6.4-6.4-6.4-12.8-44.8-32-6.4-6.4v-6.4l-6.4-6.4v-6.4l-6.4-6.4h6.4l12.8-6.4 25.6-25.6h-6.4v-6.4h-249.6l-6.4-6.4h-12.8l-12.8-6.4h-147.2v25.6h32l-12.8 12.8v25.6l-12.8 12.8v38.4h-6.4l-44.8-19.2h-25.6v102.4l6.4 6.4v6.4h12.8l6.4 6.4v6.4l51.2 51.2v6.4h-12.8v12.8l12.8 12.8v12.8l12.8 12.8v89.6l12.8 12.8v6.4l19.2 19.2 19.2 6.4 51.2 51.2h6.4l6.4 6.4h128l25.6-25.6 51.2-6.4 25.6-25.6h6.4l32-32v-6.4l6.4-12.8v-12.8h-6.4v-64h19.2v-64l6.4-12.8 6.4-6.4v-6.4l19.2-19.2 6.4-19.2 6.4-6.4v-64h6.4z" />
<glyph unicode="&#xe604;" d="M320 659.2c-19.2 0-38.4-12.8-38.4-32s19.2-32 38.4-32c19.2 0 32 12.8 32 32-6.4 19.2-12.8 32-32 32zM569.6 480c-12.8 0-25.6-12.8-25.6-25.6s12.8-25.6 25.6-25.6c19.2 0 32 12.8 32 25.6s-12.8 25.6-32 25.6zM915.2 768c0 70.4-57.6 128-128 128h-576c-70.4 0-128-57.6-128-128v-576c0-70.4 57.6-128 128-128h576c70.4 0 128 57.6 128 128v576zM396.8 345.6c-32 0-57.6 6.4-89.6 12.8l-89.6-44.8 25.6 76.8c-64 44.8-96 96-96 166.4 0 115.2 108.8 211.2 249.6 211.2 121.6 0 230.4-76.8 249.6-172.8-6.4 0-12.8 0-25.6 0-115.2 0-211.2-89.6-211.2-198.4 0-19.2 0-38.4 6.4-51.2 0 0-12.8 0-19.2 0zM761.6 256l19.2-64-70.4 38.4c-25.6-6.4-51.2-12.8-76.8-12.8-115.2 0-211.2 83.2-211.2 179.2 6.4 102.4 102.4 179.2 217.6 179.2 108.8 0 211.2-83.2 211.2-179.2 0-51.2-38.4-102.4-89.6-140.8zM710.4 480c-12.8 0-25.6-12.8-25.6-25.6s12.8-25.6 25.6-25.6c19.2 0 32 12.8 32 25.6-6.4 12.8-19.2 25.6-32 25.6zM492.8 595.2c19.2 0 32 12.8 32 32s-12.8 32-32 32c-19.2 0-38.4-12.8-38.4-32s19.2-32 38.4-32z" />
<glyph unicode="&#xe605;" d="M460.8 390.4h-51.2c0 0-44.8-6.4-57.6-51.2-6.4-32 6.4-57.6 6.4-57.6 0-6.4 12.8-19.2 51.2-38.4h70.4v198.4h-19.2v-51.2zM460.8 281.6h-38.4c0 0-25.6 0-32 25.6-6.4 12.8 0 19.2 0 25.6s6.4 19.2 25.6 19.2h38.4v-70.4zM588.8 281.6h-25.6c0 0-12.8 0-12.8 12.8v89.6h-44.8v-102.4c0 0 6.4-19.2 44.8-44.8h89.6v153.6h-51.2v-108.8zM921.6 768c0 70.4-57.6 128-128 128h-576c-70.4 0-128-57.6-128-128v-576c0-70.4 57.6-128 128-128h576c70.4 0 128 57.6 128 128v576zM537.6 672c6.4 32 44.8 83.2 76.8 76.8s64-51.2 57.6-89.6c-6.4-32-38.4-83.2-83.2-76.8s-51.2 44.8-51.2 89.6zM441.6 761.6c32 0 64-38.4 64-89.6s-25.6-89.6-64-89.6c-32 0-64 38.4-64 89.6 6.4 51.2 32 89.6 64 89.6zM249.6 556.8c0 0 6.4 70.4 57.6 76.8 38.4 6.4 70.4-38.4 70.4-64 0-19.2 12.8-89.6-51.2-102.4-57.6-12.8-83.2 57.6-76.8 89.6zM723.2 243.2c-32-76.8-160-38.4-160-38.4s-44.8 12.8-96 0c-51.2-12.8-96-6.4-96-6.4s-64 0-76.8 76.8c-19.2 76.8 64 121.6 70.4 128s44.8 38.4 70.4 76.8c25.6 44.8 108.8 76.8 160-6.4 38.4-51.2 108.8-108.8 108.8-108.8s51.2-38.4 19.2-121.6zM710.4 428.8c-70.4 0-70.4 44.8-70.4 76.8 0 38.4 6.4 83.2 64 83.2s70.4-51.2 70.4-70.4c0-12.8 6.4-89.6-64-89.6z" />
<glyph unicode="&#xe607;" d="M358.4 588.8h326.4v-134.4h-326.4v134.4zM800 896h-576c-70.4 0-128-57.6-128-128v-576c0-70.4 57.6-128 128-128h576c70.4 0 128 57.6 128 128v576c0 70.4-57.6 128-128 128zM249.6 761.6h550.4v-64h-550.4v64zM755.2 652.8v-262.4h-460.8v262.4h460.8zM819.2 198.4h-588.8v64h172.8c-19.2 44.8-38.4 64-64 102.4l57.6 25.6c25.6-38.4 44.8-83.2 64-128h115.2c25.6 44.8 44.8 83.2 57.6 128l64-25.6c-19.2-38.4-38.4-83.2-57.6-108.8h166.4v-57.6z" />
<glyph unicode="&#xe608;" d="M588.8 755.2v-25.6c19.2-243.2 134.4-403.2 326.4-499.2v544c0 70.4-51.2 128-121.6 128h-198.4c-6.4-38.4-6.4-89.6-6.4-147.2zM518.4 460.8c-70.4-166.4-185.6-288-352-384 12.8-6.4 32-6.4 44.8-6.4h576c19.2 0 32 6.4 44.8 6.4-134.4 89.6-249.6 217.6-313.6 384zM435.2 716.8v185.6h-224c-70.4 0-134.4-57.6-134.4-128v-576c0 0 0 0 0-6.4 236.8 115.2 358.4 288 358.4 524.8z" />
<glyph unicode="&#xe609;" d="M659.2 544h-294.4l192-32-204.8-166.4h313.6l-185.6 38.4zM928 768c0 70.4-57.6 128-128 128h-576c-70.4 0-128-57.6-128-128v-576c0-70.4 57.6-128 128-128h576c70.4 0 128 57.6 128 128v576zM774.4 524.8l-108.8-89.6 38.4-230.4c-6.4-6.4-6.4-6.4-12.8-6.4l-185.6 115.2-185.6-115.2c-12.8 0-12.8 0-12.8 6.4l25.6 230.4-108.8 102.4-38.4 25.6v6.4h217.6l25.6 51.2 70.4 147.2c6.4 0 6.4 0 12.8 0l76.8-147.2 25.6-51.2h192c6.4 0 6.4 0 6.4-6.4l-38.4-38.4z" />
<glyph unicode="&#xe610;" d="M473.6 166.4c-160 0-326.4 76.8-326.4 204.8 0 70.4 44.8 147.2 115.2 217.6 96 96 211.2 140.8 256 102.4 19.2-19.2 19.2-51.2 6.4-89.6-6.4-19.2 19.2-12.8 19.2-12.8 76.8 32 147.2 38.4 172.8 0 12.8-19.2 12.8-44.8 0-76.8-6.4-12.8 0-19.2 12.8-19.2 51.2-12.8 96-44.8 96-108.8 0-96-140.8-217.6-352-217.6v0zM691.2 390.4c-6.4 83.2-121.6 140.8-249.6 128s-230.4-89.6-217.6-179.2c6.4-83.2 121.6-140.8 249.6-128s230.4 89.6 217.6 179.2v0zM915.2 524.8c0 0 0 0 0 0 0-12.8-19.2-25.6-32-19.2s-25.6 19.2-19.2 38.4v0c12.8 51.2 6.4 102.4-32 140.8s-89.6 57.6-140.8 44.8c-19.2-6.4-32 6.4-38.4 25.6s6.4 32 25.6 38.4v0c70.4 12.8 147.2-6.4 198.4-64s64-134.4 38.4-204.8v0zM819.2 556.8c-6.4-12.8-19.2-19.2-32-19.2-19.2 6.4-25.6 25.6-19.2 38.4v0c6.4 19.2 0 32-12.8 51.2-12.8 12.8-25.6 12.8-44.8 12.8v0c-12.8 0-25.6 6.4-32 19.2 0 12.8 6.4 25.6 19.2 32 32 6.4 70.4-6.4 96-32 25.6-32 32-64 25.6-102.4v0zM556.8 320c-25.6-57.6-102.4-89.6-166.4-70.4s-89.6 83.2-64 134.4c25.6 51.2 96 83.2 160 70.4 64-19.2 96-76.8 70.4-134.4v0zM422.4 364.8c-19.2 6.4-44.8 0-57.6-19.2s-6.4-44.8 12.8-51.2c19.2-6.4 44.8 0 57.6 19.2 19.2 19.2 12.8 38.4-12.8 51.2v0zM473.6 384c-6.4 0-19.2 0-19.2-6.4-6.4-6.4-6.4-19.2 6.4-19.2 6.4-6.4 19.2 0 25.6 6.4 0 6.4-6.4 19.2-12.8 19.2v0z" />
<glyph unicode="&#xe611;" d="M864 352c-19.2 96-83.2 153.6-83.2 153.6 12.8 83.2-25.6 102.4-25.6 102.4-6.4 262.4-236.8 256-243.2 256 0 0-230.4 6.4-236.8-256 0 0-38.4-12.8-25.6-102.4 0 0-70.4-64-83.2-153.6 0 0-6.4-160 76.8-19.2 0 0 19.2-51.2 57.6-102.4 0 0-64-19.2-57.6-76.8 0 0 0-64 134.4-57.6 0 0 96 6.4 128 51.2h19.2c32-38.4 128-51.2 128-51.2 134.4-6.4 134.4 57.6 134.4 57.6 6.4 57.6-57.6 76.8-57.6 76.8 38.4 44.8 57.6 102.4 57.6 102.4 83.2-140.8 76.8 19.2 76.8 19.2v0z" />
<glyph unicode="&#xe612;" d="M403.2 64h217.6v832h-217.6v-44.8h172.8v-160h-172.8v-38.4h172.8v-160h-172.8v-64c32 0 51.2-25.6 51.2-51.2s-19.2-51.2-51.2-51.2v0 0-83.2c32 0 51.2-25.6 51.2-51.2 0-32-25.6-51.2-51.2-51.2v0 0-76.8zM192 64h217.6v76.8c-32 0-51.2 25.6-51.2 51.2 0 32 25.6 51.2 51.2 51.2v83.2c-32 0-51.2 25.6-51.2 51.2 0 32 25.6 51.2 51.2 51.2v64h-172.8v160h172.8v38.4h-172.8v160h172.8v44.8h-217.6v-832zM832 108.8v646.4l-179.2 140.8v-832zM256 825.6h300.8v-115.2h-300.8v115.2zM256 633.6h300.8v-115.2h-300.8v115.2z" />
<glyph unicode="&#xe613;" d="M544 64c19.2 0 44.8 6.4 64 6.4 12.8 0 25.6 6.4 38.4 12.8 6.4 0 12.8 6.4 19.2 6.4 12.8 6.4 25.6 12.8 38.4 19.2 6.4 0 12.8 6.4 19.2 12.8 25.6 12.8 51.2 32 70.4 51.2 6.4 6.4 12.8 6.4 12.8 12.8 6.4 6.4 6.4 6.4 12.8 12.8s12.8 12.8 19.2 25.6c12.8 12.8 19.2 25.6 25.6 38.4 0 6.4 6.4 6.4 6.4 12.8 6.4 6.4 6.4 12.8 6.4 19.2 0 0 0 6.4 6.4 6.4 0 6.4 6.4 12.8 6.4 19.2s6.4 12.8 6.4 19.2 6.4 25.6 12.8 38.4c0 6.4 6.4 12.8 6.4 19.2s0 12.8 6.4 19.2c0 6.4 0 12.8 0 19.2 0 12.8 0 25.6 0 44.8 0 12.8 0 25.6 0 44.8 0 6.4 0 12.8 0 19.2s0 12.8-6.4 19.2c0 6.4 0 12.8-6.4 19.2-6.4 12.8-6.4 25.6-12.8 38.4 0 0 0 6.4-6.4 6.4 6.4 12.8 0 25.6 0 32 0 0 0 6.4-6.4 6.4 0 6.4-6.4 12.8-6.4 19.2-12.8 19.2-19.2 32-32 51.2-6.4 6.4-12.8 12.8-19.2 25.6-6.4 6.4-6.4 12.8-12.8 12.8-6.4 6.4-6.4 6.4-12.8 12.8s-19.2 19.2-32 25.6c-12.8 12.8-25.6 19.2-44.8 25.6-6.4 6.4-12.8 6.4-19.2 12.8 0 0-6.4 0-6.4 6.4-6.4 0-6.4 0-12.8 6.4 0 0 0 0-6.4 0s-6.4 6.4-12.8 6.4c0 0 0 0 0 0-6.4 0-12.8 6.4-12.8 6.4s0 0-6.4 0c-12.8 0-25.6 6.4-38.4 6.4-6.4 0-6.4 0-12.8 0 0 0-6.4 0-6.4 0-19.2 6.4-32 12.8-44.8 12.8v-19.2c19.2 0 32-6.4 51.2-6.4 0 0-6.4 0-6.4 0s-6.4-6.4-6.4-6.4c-6.4 0-12.8 0-19.2 0 0 0 6.4-6.4 6.4-6.4 6.4-6.4 12.8 0 19.2 0s12.8 0 12.8 0c0 0 0 6.4 6.4 6.4 0 0 0 0 6.4 0s6.4 0 12.8-6.4c0 0-6.4 0-6.4-6.4 0 0 12.8 0 12.8 6.4 0 0 0 0 6.4 0s12.8-6.4 19.2-6.4c6.4 0 19.2-6.4 25.6-12.8 0 0-6.4 0-6.4 0-6.4 0-6.4 6.4-6.4 0s6.4-6.4 6.4-6.4 6.4-6.4 6.4-6.4c-6.4-6.4-6.4 0-12.8 0s-12.8-12.8-19.2 0c0 6.4 6.4 6.4 6.4 12.8 0 0 0 0-6.4 0 0 0-6.4 0-6.4 0s-6.4 0-6.4-6.4c0 0-6.4 0-6.4 0-6.4 0-6.4-6.4-12.8-6.4 0 0-6.4 0-6.4 0-25.6-12.8-32-19.2-38.4-19.2 0 0-6.4-6.4-12.8-6.4 0 0-6.4-6.4-6.4-6.4s6.4-6.4 6.4-6.4c0 0 0-6.4 0-6.4s6.4 0 6.4 0c6.4-6.4 12.8-12.8 19.2-19.2 6.4 0 12.8-6.4 12.8-6.4 6.4 0 12.8 0 12.8 0 0-6.4-6.4-6.4-6.4-6.4 6.4-6.4 0-6.4 0-12.8 0 0 6.4-6.4 6.4-6.4 6.4 0 12.8 6.4 12.8 6.4 0 6.4 0 12.8 6.4 19.2 19.2 0 38.4 6.4 38.4 32 0 0 0 6.4 0 6.4 0 6.4 6.4 6.4 6.4 12.8 0 0 6.4 0 6.4 6.4 0 0 0 6.4 6.4 6.4 0 0 0 0 0 0s6.4 0 6.4 0 6.4 0 12.8 0c0 0 6.4 0 6.4 0 6.4 0 6.4-6.4 12.8-6.4 0 0 6.4 0 6.4-6.4s-6.4-6.4-6.4-12.8c0 0 0 0 0 0 0-6.4 6.4-6.4 6.4-6.4 6.4 0 6.4 0 12.8 0s6.4 6.4 12.8 6.4c6.4-6.4 6.4-6.4 12.8-12.8 0 0 0-6.4 0-6.4 0-6.4 0-6.4 0-12.8s12.8-6.4 12.8-12.8c0 0 0-6.4 0-6.4s6.4 0 6.4-6.4c0-6.4-6.4-6.4-6.4-19.2 0-6.4-6.4 0-6.4-6.4s12.8 0 12.8-6.4c0 0 0-6.4 0-6.4 6.4-6.4 6.4-12.8 0-12.8s-6.4 6.4-6.4 6.4c0 0-6.4 0-6.4 0s-6.4 0-6.4 0-12.8 0-12.8 0c-6.4 12.8 0 19.2 6.4 25.6 0 0 6.4 0 6.4 6.4-6.4 6.4-6.4 0-12.8 0s-6.4-6.4-12.8-6.4c-6.4 0-19.2 0-25.6 0 0-6.4 6.4 0 6.4-6.4 0 0-6.4 0-6.4 0s0 6.4 0 6.4c0 0-12.8 0-12.8 0-6.4 0-6.4-6.4-6.4-6.4 6.4 0 12.8 0 19.2-6.4-12.8 0-19.2-6.4-19.2-12.8 0 0 6.4-6.4 6.4-6.4s6.4 0 6.4 0c0 0 0 0 6.4 0s6.4 6.4 12.8 6.4c6.4-6.4-6.4-12.8-12.8-12.8s-19.2-6.4-19.2-6.4c0 0-12.8-12.8-12.8-6.4s6.4 6.4 6.4 6.4c-6.4 0-12.8 0-19.2-6.4s-25.6-6.4-25.6-12.8c0 0 0-6.4 0-6.4s-6.4 0-12.8 0-12.8-6.4-19.2-6.4c0 0-6.4 0-6.4 0s0-6.4-6.4-12.8c0 0-6.4 0-6.4-6.4 0 0 0-6.4-6.4-6.4 0 0-6.4 0-6.4 0 0-6.4 0-12.8 0-19.2-6.4 0-12.8-6.4-19.2-6.4s-6.4 0-12.8-6.4c0 0-6.4-6.4-6.4-6.4s-6.4 0-6.4-6.4v-192c0 0 6.4 6.4 6.4 6.4 0 6.4 0 6.4 6.4 12.8 6.4 0 6.4 0 12.8 6.4 0 0 6.4 0 6.4 6.4 0 0 6.4 6.4 6.4 0 6.4-6.4-6.4-6.4 0-6.4 6.4-6.4 6.4 6.4 12.8 6.4 0 0 6.4 0 6.4-6.4 6.4 0 6.4-6.4 6.4-6.4s6.4 0 12.8 0c6.4 0 6.4-6.4 12.8-6.4s6.4 6.4 12.8 6.4c6.4 0 12.8 0 12.8-6.4 6.4 0 6.4 6.4 6.4 0s0-6.4 0-6.4 0-6.4 0-6.4c0 0 6.4 0 6.4-6.4 6.4 0 6.4-6.4 6.4-12.8 6.4-6.4 12.8-6.4 12.8-6.4 6.4 0 6.4 0 12.8 0s12.8-6.4 19.2-12.8c6.4 0 6.4-6.4 6.4-6.4s0-6.4 0-6.4 12.8-6.4 6.4-19.2c0 0 6.4-6.4 6.4-6.4s6.4-6.4 6.4-6.4c0 0 6.4 0 6.4 0 6.4 0 6.4 0 12.8-6.4 0 0 6.4 0 6.4 0s0-6.4 6.4-6.4c0 0 6.4 0 6.4 0 6.4 0 12.8-6.4 12.8-6.4s6.4 0 6.4 0 12.8-6.4 12.8-6.4c-51.2-89.6-140.8-153.6-243.2-172.8 0 6.4 0 6.4 0 12.8s0 12.8 0 19.2c0 6.4 0 12.8-6.4 19.2 0 6.4-12.8 12.8-19.2 12.8 0 0-6.4 0-12.8 6.4s-19.2 12.8-25.6 19.2c0 0 0 6.4 0 6.4s0 6.4-6.4 6.4v-134.4zM102.4 563.2c0-6.4 0-12.8-6.4-19.2 0-6.4 0-12.8 0-19.2 0-12.8 0-25.6 0-44.8 0-12.8 0-25.6 0-44.8 0-6.4 0-12.8 0-19.2s0-12.8 6.4-19.2c0-6.4 0-12.8 6.4-19.2 6.4-12.8 6.4-25.6 12.8-38.4 0-6.4 6.4-12.8 6.4-19.2s6.4-12.8 6.4-19.2c0 0 0-6.4 6.4-6.4 0-6.4 6.4-12.8 12.8-19.2 12.8-19.2 19.2-32 32-51.2 6.4-6.4 12.8-12.8 19.2-25.6 6.4-6.4 6.4-12.8 12.8-12.8 6.4-6.4 6.4-6.4 12.8-12.8 19.2-19.2 44.8-38.4 70.4-51.2 6.4-6.4 12.8-6.4 19.2-12.8 12.8-6.4 25.6-12.8 38.4-19.2 6.4 0 12.8-6.4 19.2-6.4 44.8-12.8 89.6-19.2 134.4-19.2 12.8 0 19.2 0 32 0v134.4c0 0-6.4 6.4-6.4 6.4-6.4 6.4-12.8 19.2-12.8 25.6s-6.4 6.4-6.4 12.8c0 0-6.4 6.4-6.4 6.4 0 6.4-6.4 12.8-6.4 12.8 0 6.4 6.4 6.4 6.4 12.8s-6.4 6.4-6.4 6.4c0 6.4 0 12.8 6.4 19.2 0 0 0 6.4 0 6.4s6.4 0 6.4 6.4c0 0 0 6.4 6.4 6.4 6.4 6.4 6.4 6.4 12.8 12.8 0 6.4 0 19.2 0 25.6s-6.4 6.4-6.4 6.4c0 6.4 0 12.8-6.4 12.8-12.8 0-12.8-6.4-12.8-6.4s0-6.4-6.4-6.4c-6.4 0-6.4 6.4-12.8 6.4 0 0-6.4 0-6.4 0-6.4 0-6.4 6.4-12.8 12.8 0 0-6.4 0-6.4 6.4 0 0 0 6.4 0 6.4-6.4 0-6.4 12.8-12.8 19.2-6.4 0-6.4 0-12.8 0 0 0-6.4 0-6.4 0s-6.4 0-6.4 0c-12.8 6.4-19.2 19.2-32 19.2-6.4 0-6.4 0-12.8 0s-12.8 6.4-19.2 6.4c0 0-6.4 0-12.8 6.4-6.4 0-6.4 0-6.4 6.4 0 0-6.4 0-6.4 0s-6.4 6.4-6.4 6.4c-12.8 0-12.8 6.4-12.8 6.4 0 6.4 0 6.4 0 12.8 0 12.8-6.4 19.2-12.8 25.6 0 6.4-6.4 6.4-6.4 12.8 0 0 0 6.4 0 6.4s-6.4 6.4-6.4 12.8c0 6.4-6.4 6.4-6.4 12.8s0 6.4 0 12.8-12.8 6.4-12.8-6.4c0 0 6.4-6.4 6.4-12.8 0 0 0-6.4 0-12.8s6.4-6.4 6.4-12.8c0-6.4 0-12.8 6.4-19.2 0-6.4 6.4-6.4 6.4-12.8-6.4 0-6.4 6.4-6.4 6.4s-6.4 6.4-6.4 6.4c0 0 0 6.4 0 6.4 0 6.4-12.8 6.4-12.8 12.8s6.4 6.4 6.4 6.4c0 6.4-6.4 6.4-6.4 12.8s0 6.4 0 12.8c-19.2 19.2-19.2 25.6-19.2 25.6s-6.4 6.4-6.4 6.4c-6.4 0-6.4 0-6.4 6.4 0 0 0 6.4 0 12.8s0 12.8 0 19.2c0 6.4 0 12.8 0 19.2s6.4 6.4 6.4 12.8c0 0 0 6.4 6.4 12.8-6.4 0 0 6.4 6.4 6.4 6.4 6.4 12.8 12.8 12.8 19.2 0 0 6.4 6.4 6.4 12.8s-6.4 6.4-6.4 12.8c0 0 6.4 0 6.4 6.4 0 0 0 6.4 0 6.4 0 6.4 0 6.4 0 12.8s6.4 6.4 6.4 12.8c0 6.4-6.4 0-12.8 0 0 0 0 6.4 0 12.8 0 0 0 6.4 0 6.4s6.4 6.4 0 6.4c0 0-6.4 6.4-6.4 6.4 51.2 38.4 108.8 70.4 172.8 76.8v0c0 0 0 0 6.4-6.4 6.4 0 6.4 0 12.8 0s6.4 0 12.8 0 19.2-6.4 25.6-6.4c0 0 0 0 0 6.4 0 0 0 6.4 6.4 6.4s6.4 0 12.8 0c12.8 0 19.2 0 32 0v32c-19.2 0-25.6 0-32 0 0 0-6.4 0-6.4 0-6.4 0-6.4 0-12.8 0-44.8 0-83.2-6.4-121.6-19.2-6.4 0-12.8-6.4-19.2-6.4 0 0-6.4 0-6.4 0-6.4 0-6.4-6.4-12.8-6.4-6.4-6.4-12.8-12.8-19.2-12.8s-12.8-6.4-19.2-6.4c-25.6-12.8-44.8-32-64-44.8 0 0-6.4-6.4-6.4-6.4 0-12.8-6.4-12.8-12.8-19.2s-6.4-12.8-12.8-12.8-12.8-19.2-19.2-25.6c-12.8-12.8-25.6-32-32-51.2-6.4-6.4-6.4-6.4-12.8-12.8 0 0 0-6.4-6.4-6.4 0-12.8-6.4-25.6-6.4-32 0 0 0-6.4-6.4-6.4-6.4-19.2-6.4-32-12.8-44.8 0-6.4 0-12.8-6.4-19.2v0zM544 569.6v-192c0 0 0 0-6.4 0-6.4-6.4-6.4 0-12.8 6.4-6.4 0-12.8-6.4-25.6-6.4-6.4 0-19.2 12.8-19.2 19.2s0 12.8 0 19.2c0 6.4 6.4 6.4 6.4 12.8s-6.4 12.8-12.8 12.8c-6.4 0-19.2-6.4-32 0 0 0 0 6.4 0 6.4s0 6.4 0 6.4c0 0 6.4 6.4 6.4 6.4s0 6.4 0 6.4 6.4 6.4 6.4 6.4c0 0 0 6.4 0 6.4-6.4 0-12.8 0-19.2 0 0-6.4 0-19.2-6.4-19.2s-6.4 0-12.8 0c0 0-6.4 0-12.8 0s-12.8 6.4-12.8 6.4c0 0-6.4 12.8-6.4 12.8 0 12.8 0 19.2 6.4 32 0 0 0 6.4 6.4 6.4 0 0 0 6.4 0 12.8s12.8 12.8 12.8 12.8c6.4 6.4 12.8 6.4 19.2 6.4s6.4 0 12.8 0 6.4 0 6.4 0c6.4 0 12.8 6.4 19.2 6.4s12.8 0 19.2 0c6.4 0 6.4-6.4 12.8-6.4 0 0 6.4 0 6.4 0 6.4 0 6.4-6.4 6.4-6.4 0-6.4 0-6.4 0-12.8 6.4-6.4 12.8-6.4 19.2-6.4 6.4 6.4 0 6.4 0 12.8 0 0 0 6.4 0 6.4 0 6.4 0 6.4 0 6.4 0 12.8 0 19.2 12.8 19.2z" />
<glyph unicode="&#xe614;" d="M780.8 806.4h115.2v-742.4h-115.2v742.4zM614.4 403.2h115.2v-339.2h-115.2v339.2zM448 697.6h115.2v-633.6h-115.2v633.6zM288 499.2h115.2v-435.2h-115.2v435.2zM121.6 569.6h115.2v-505.6h-115.2v505.6zM780.8 896h115.2v-51.2h-115.2v51.2zM448 780.8h115.2v-51.2h-115.2v51.2zM288 582.4h115.2v-51.2h-115.2v51.2zM121.6 652.8h115.2v-51.2h-115.2v51.2zM614.4 486.4h115.2v-51.2h-115.2v51.2z" />
<glyph unicode="&#xe615;" d="M838.4 134.4h89.6v384h-89.6v-57.6h38.4v-70.4h-38.4v-256zM780.8 134.4h57.6v256h-38.4v76.8h38.4v57.6h-57.6v-166.4h38.4v-70.4h-38.4v-153.6zM729.6 134.4h57.6v38.4h-57.6v-38.4zM780.8 524.8h-57.6v-57.6h38.4v-70.4h-38.4v-147.2h57.6v38.4h-38.4v70.4h38.4v166.4zM672 134.4h57.6v38.4h-57.6v-38.4zM729.6 524.8h-57.6v-166.4h38.4v-70.4h-38.4v-38.4h57.6v147.2h-38.4v70.4h38.4v57.6zM620.8 134.4h57.6v38.4h-57.6v-38.4zM672 524.8h-51.2v-57.6h38.4v-70.4h-38.4v-147.2h57.6v38.4h-38.4v70.4h38.4v166.4zM563.2 134.4h57.6v38.4h-57.6v-38.4zM620.8 524.8h-57.6v-166.4h38.4v-70.4h-38.4v-38.4h57.6v147.2h-38.4v70.4h38.4v57.6zM512 134.4h57.6v38.4h-57.6v-38.4zM563.2 524.8h-51.2v-57.6h38.4v-70.4h-38.4v-147.2h57.6v38.4h-44.8v70.4h38.4v166.4zM454.4 134.4h57.6v38.4h-57.6v-38.4zM512 524.8h-57.6v-166.4h38.4v-70.4h-38.4v-38.4h57.6v147.2h-38.4v70.4h38.4v57.6zM403.2 134.4h57.6v38.4h-57.6v-38.4zM454.4 524.8h-51.2v-57.6h38.4v-70.4h-38.4v-147.2h57.6v38.4h-44.8v70.4h38.4v166.4zM345.6 134.4h57.6v38.4h-57.6v-38.4zM403.2 524.8h-57.6v-166.4h38.4v-70.4h-38.4v-38.4h57.6v147.2h-38.4v70.4h38.4v57.6zM294.4 134.4h57.6v38.4h-57.6v-38.4zM345.6 524.8h-51.2v-57.6h38.4v-70.4h-38.4v-147.2h57.6v38.4h-44.8v70.4h38.4v166.4zM236.8 134.4h57.6v38.4h-57.6v-38.4zM294.4 524.8h-57.6v-166.4h38.4v-70.4h-38.4v-38.4h57.6v147.2h-38.4v70.4h38.4v57.6zM179.2 134.4h57.6v147.2h-38.4v76.8h38.4v166.4h-57.6v-57.6h38.4v-70.4h-38.4v-262.4zM96 134.4h83.2v256h-32v76.8h38.4v57.6h-89.6v-390.4zM249.6 646.4l32-57.6c57.6 32 128 51.2 204.8 51.2s147.2-19.2 204.8-51.2l32 57.6c-57.6 32-147.2 51.2-230.4 51.2-89.6 0-172.8-19.2-243.2-51.2zM812.8 755.2c-89.6 44.8-204.8 76.8-320 76.8s-230.4-25.6-320-76.8l32-57.6c76.8 38.4 179.2 64 288 64 102.4 0 204.8-25.6 288-70.4l32 64z" />
<glyph unicode="&#xe616;" d="M697.6 396.8c76.8 128 64 294.4-44.8 403.2-64 64-147.2 96-230.4 96v-262.4h198.4v-121.6h-198.4v-262.4c57.6 0 121.6 19.2 172.8 51.2l230.4-230.4 102.4 102.4-230.4 224zM422.4 896c-83.2 0-166.4-32-230.4-96-128-128-128-332.8 0-460.8 64-64 147.2-96 230.4-96v268.8h-198.4v121.6h198.4v262.4z" />
<glyph unicode="&#xe619;" d="M288 364.8h38.4v-192h38.4v192h38.4v32h-115.2v-32zM480 211.2c0-6.4-6.4-6.4-12.8-6.4s-6.4-6.4-6.4-6.4c0 0-6.4 0-6.4 0s0 6.4 0 6.4v128h-38.4v-140.8c0-12.8 0-19.2 6.4-19.2 6.4-6.4 6.4-6.4 19.2-6.4 6.4 0 12.8 0 19.2 6.4s12.8 6.4 19.2 12.8v-19.2h32v172.8h-32v-128zM601.6 339.2c-6.4 0-12.8 0-12.8-6.4-6.4 0-12.8 0-19.2-6.4v70.4h-32v-224h32v12.8c6.4-6.4 6.4-6.4 12.8-12.8 6.4 0 12.8-6.4 19.2-6.4 12.8 0 19.2 0 25.6 6.4s6.4 12.8 6.4 25.6v89.6c0 12.8 0 25.6-6.4 32-6.4 19.2-19.2 19.2-25.6 19.2v0zM601.6 211.2c0-6.4 0-6.4 0-12.8 0 0-6.4-6.4-6.4-6.4s-6.4 0-6.4 0c0 0-6.4 0-6.4 6.4v102.4c0 0 6.4 6.4 6.4 6.4s6.4 0 6.4 0 6.4 0 12.8-6.4c0 0 6.4-6.4 6.4-12.8v-76.8h-12.8zM697.6 345.6c-12.8 0-25.6-6.4-38.4-12.8-6.4-6.4-12.8-19.2-12.8-32v-76.8c0-12.8 6.4-25.6 12.8-38.4 6.4-6.4 19.2-12.8 32-12.8 19.2 0 32 6.4 38.4 12.8s12.8 19.2 12.8 38.4v6.4h-32v-6.4c0-12.8 0-12.8-6.4-19.2 0 0-6.4-6.4-12.8-6.4s-6.4 0-12.8 6.4c0 6.4-6.4 6.4-6.4 19.2v32h64v44.8c0 12.8-6.4 25.6-12.8 38.4 6.4 0-6.4 6.4-25.6 6.4v0zM710.4 275.2h-32v19.2c0 6.4 0 12.8 6.4 12.8 0 0 6.4 6.4 12.8 6.4s6.4 0 12.8-6.4c0 0 6.4-6.4 6.4-12.8v-19.2h-6.4zM524.8 659.2c-6.4 0-12.8 0-12.8-6.4 0 0-6.4-6.4-6.4-12.8v-102.4c0-6.4 0-6.4 6.4-12.8 0 0 6.4-6.4 12.8-6.4s6.4 0 12.8 6.4c0 0 6.4 6.4 6.4 12.8v108.8c0 6.4 0 6.4-6.4 12.8-6.4 0-12.8 0-12.8 0v0zM832 793.6h-627.2c-44.8 0-83.2-38.4-83.2-83.2v-179.2c0-44.8 38.4-83.2 83.2-83.2h627.2c44.8 0 83.2 38.4 83.2 83.2v179.2c0 44.8-38.4 83.2-83.2 83.2v0zM416 601.6v-102.4h-38.4v102.4l-51.2 147.2h44.8l25.6-96 25.6 96h44.8l-51.2-147.2zM576 550.4c0-19.2-6.4-32-12.8-38.4-12.8-12.8-25.6-12.8-38.4-12.8-19.2 0-32 0-44.8 12.8-6.4 6.4-12.8 19.2-12.8 38.4v89.6c0 12.8 6.4 25.6 12.8 32 12.8 6.4 25.6 12.8 38.4 12.8s25.6-6.4 38.4-12.8c12.8-6.4 19.2-19.2 19.2-32v-89.6zM710.4 499.2h-38.4v25.6c-6.4-12.8-12.8-12.8-19.2-19.2s-12.8-6.4-19.2-6.4c-6.4 0-12.8 0-19.2 6.4s-6.4 12.8-6.4 25.6v153.6h38.4v-140.8c0-6.4 0-6.4 0-6.4s6.4 0 6.4 0c0 0 6.4 0 12.8 6.4 6.4 0 6.4 6.4 12.8 12.8v128h38.4v-185.6h-6.4z" />
<glyph unicode="&#xe61a;" d="M352 825.6l-25.6-6.4-32-44.8h147.2l38.4 38.4 51.2-57.6h-179.2c32-12.8 51.2-25.6 57.6-38.4s6.4-19.2 6.4-25.6c0-6.4 0-12.8-6.4-19.2s-12.8-12.8-19.2-12.8c-6.4-6.4-12.8 0-19.2 19.2 0 12.8-6.4 25.6-12.8 38.4s-12.8 25.6-25.6 38.4h-51.2c-12.8-12.8-32-32-51.2-51.2-25.6-25.6-44.8-51.2-76.8-76.8l-6.4 12.8c25.6 32 57.6 70.4 83.2 115.2s44.8 83.2 57.6 128l64-57.6zM281.6 544c6.4-243.2 6.4-384 12.8-435.2l-57.6-25.6c0 102.4 0 204.8 0 313.6 0 102.4-6.4 172.8-6.4 211.2l70.4-32-19.2-32zM288 678.4c51.2-25.6 83.2-44.8 89.6-57.6s6.4-19.2 6.4-32c0-6.4 0-12.8-6.4-19.2 0-12.8-6.4-19.2-19.2-25.6-6.4-6.4-12.8 0-19.2 19.2 0 12.8-6.4 25.6-19.2 44.8-6.4 19.2-19.2 38.4-38.4 57.6l6.4 12.8zM390.4 179.2c0 83.2 6.4 153.6 6.4 224s0 121.6-6.4 153.6l51.2-32h147.2l19.2 38.4 83.2-51.2-38.4-32c0-140.8 0-230.4 6.4-256l-70.4-25.6v38.4h-147.2v-38.4l-51.2-19.2zM640 185.6c38.4-6.4 70.4-6.4 83.2-6.4 19.2 0 12.8 0 25.6 0 6.4 0 12.8 12.8 12.8 25.6l-6.4 416-230.4-6.4c-19.2 0-38.4-6.4-64-12.8l-32 32h339.2l32 32 44.8-44.8-32-19.2 6.4-422.4c0-12.8 0-32-6.4-44.8s-51.2-32-76.8-44.8c-6.4 32-51.2 57.6-115.2 70.4l19.2 25.6zM441.6 505.6v-108.8h147.2v108.8h-147.2zM441.6 371.2v-115.2h147.2v115.2h-147.2zM659.2 838.4l-32-12.8-25.6-44.8h185.6l38.4 38.4 51.2-51.2-217.6-6.4c38.4-19.2 64-32 64-38.4 6.4-6.4 6.4-12.8 6.4-19.2s0-6.4 0-12.8-6.4-12.8-12.8-12.8c-6.4-12.8-12.8-12.8-12.8-12.8-6.4 0-6.4 6.4-12.8 12.8s-6.4 19.2-12.8 32c-6.4 12.8-12.8 32-32 51.2h-57.6c-32-38.4-64-70.4-102.4-102.4l-12.8 12.8c32 38.4 57.6 76.8 76.8 115.2 25.6 38.4 38.4 70.4 44.8 89.6l64-38.4z" />
<glyph unicode="&#xe61b;" d="M243.2 422.4c0-128 0-57.6 0-153.6-108.8 115.2-172.8 268.8-172.8 409.6 0 185.6 0 211.2 0 211.2 128 0 38.4 0 198.4 0 76.8 0 147.2-12.8 217.6-44.8-140.8-76.8-243.2-236.8-243.2-422.4v0zM652.8 83.2c-160 0-288 70.4-390.4 166.4 6.4 0 38.4 0 160 0 153.6 0 332.8 102.4 409.6 275.2 25.6-64 44.8-134.4 44.8-204.8v-236.8h-224zM825.6 531.2c-64 140.8-179.2 249.6-326.4 307.2 57.6 32 121.6 51.2 185.6 51.2h179.2v-179.2c0-64-12.8-128-38.4-179.2v0zM262.4 268.8c0 0 0 0 0 0s0 0 0 0 0 0 0 0v0zM422.4 268.8c-115.2 0-140.8 6.4-153.6 6.4 0 0 0 0 0 0 0 96-6.4 19.2-6.4 147.2 0 172.8 96 332.8 236.8 409.6 140.8-57.6 256-166.4 320-300.8-76.8-166.4-249.6-262.4-396.8-262.4v0z" />
<glyph unicode="&#xe61e;" d="M492.8 467.2c-121.6 115.2-339.2 140.8-339.2 140.8-25.6 0-44.8-19.2-44.8-44.8v-76.8c0-19.2 19.2-38.4 44.8-38.4 0 0 140.8-6.4 224-76.8 115.2-102.4 108.8-243.2 108.8-243.2 0-25.6 12.8-44.8 38.4-44.8h83.2c25.6 0 32 19.2 32 44.8 0 0-19.2 224-147.2 339.2v0zM224 300.8c-64 0-108.8-51.2-108.8-108.8s51.2-108.8 108.8-108.8c64 0 108.8 51.2 108.8 108.8s-44.8 108.8-108.8 108.8v0zM710.4 620.8c-192 224-556.8 249.6-556.8 249.6-25.6 0-44.8-19.2-44.8-38.4v-76.8c0-25.6 19.2-38.4 44.8-38.4 0 0 262.4-6.4 409.6-179.2 204.8-204.8 185.6-409.6 185.6-409.6 0-25.6 19.2-44.8 44.8-44.8h83.2c25.6 0 38.4 19.2 38.4 44.8 6.4 0-12.8 320-204.8 492.8v0z" />
<glyph unicode="&#xe621;" d="M908.8 326.4c0-25.6-19.2-44.8-38.4-57.6l-12.8-6.4h-236.8c-179.2 0-236.8 0-249.6 0-44.8 12.8-76.8 44.8-76.8 96 0 12.8 0 25.6 6.4 32 19.2 25.6 51.2 44.8 89.6 51.2 19.2 6.4 25.6 6.4 25.6 19.2 0 0 0 12.8 6.4 19.2 12.8 32 38.4 57.6 64 70.4s38.4 12.8 70.4 12.8 70.4-6.4 96-38.4l19.2-12.8h6.4c76.8 25.6 147.2-12.8 153.6-83.2v-19.2l12.8-6.4c51.2-6.4 70.4-32 64-76.8v0zM716.8 544c-6.4 0-12.8 0-25.6-6.4l-19.2-6.4-19.2 12.8c-38.4 44.8-115.2 51.2-179.2 25.6-25.6-12.8-44.8-25.6-64-44.8-6.4-12.8-19.2-44.8-19.2-51.2s-6.4-6.4-25.6-12.8c-57.6-12.8-96-51.2-96-102.4 0-19.2 6.4-38.4 12.8-51.2 0-6.4 6.4-6.4 6.4-12.8 0 0-76.8 0-83.2 0-32 6.4-57.6 25.6-76.8 51.2-6.4 12.8-6.4 19.2-6.4 44.8s0 25.6 6.4 38.4c12.8 19.2 38.4 38.4 70.4 44.8 6.4 0 12.8 6.4 12.8 6.4s0 6.4 0 19.2c0 51.2 38.4 89.6 89.6 108.8 25.6 6.4 64 6.4 96-6.4 6.4-6.4 6.4-6.4 32 19.2 12.8 12.8 38.4 32 57.6 38.4s44.8 12.8 70.4 12.8c76.8 0 140.8-38.4 160-102.4 6.4-19.2 6.4-25.6 0-25.6v0z" />
<glyph unicode="&#xe623;" d="M838.4 332.8v0c-89.6-102.4-281.6-224-326.4-243.2s-38.4 12.8-38.4 19.2c0 6.4 6.4 38.4 6.4 38.4 0 12.8 0 25.6 0 38.4-6.4 12.8-25.6 19.2-38.4 19.2v0c-198.4 25.6-345.6 166.4-345.6 332.8 0 185.6 185.6 339.2 416 339.2s416-153.6 416-339.2c0-70.4-32-140.8-89.6-204.8v0zM352 473.6h-64c0 0 0 0 0 0v140.8c0 6.4-6.4 19.2-12.8 19.2-19.2 6.4-32 0-32-19.2v-166.4c0-12.8 12.8-19.2 19.2-19.2h83.2c6.4 0 19.2 6.4 19.2 12.8 12.8 19.2 0 32-12.8 32v0zM435.2 614.4c0 19.2-12.8 25.6-32 25.6-6.4 0-12.8-12.8-12.8-19.2v-166.4c0-6.4 6.4-19.2 12.8-19.2 12.8-6.4 32 6.4 32 19.2v160zM633.6 614.4c0 19.2-12.8 25.6-25.6 25.6-6.4 0-12.8-12.8-12.8-19.2v-108.8c0 0 0 0 0 0l-89.6 115.2c-6.4 6.4-12.8 12.8-19.2 12.8 0 0-6.4 0-6.4 0-6.4 0-12.8-12.8-12.8-19.2v-166.4c0-6.4 6.4-19.2 12.8-19.2 12.8-6.4 32 0 32 19.2v96c0 0 0 0 0 0l83.2-115.2c6.4-6.4 12.8-6.4 19.2-6.4s12.8 0 19.2 6.4c0 6.4 0 12.8 0 19.2v160zM768 512c12.8 0 25.6 12.8 19.2 25.6 0 6.4-12.8 12.8-19.2 12.8h-57.6c0 0 0 0 0 0v44.8c0 0 0 0 0 0h57.6c6.4 0 19.2 6.4 19.2 12.8 6.4 19.2-6.4 32-19.2 32h-83.2c-12.8 0-19.2-12.8-19.2-19.2v0-83.2c0 0 0 0 0 0v-83.2c0-12.8 12.8-19.2 19.2-19.2h83.2c6.4 0 19.2 6.4 19.2 12.8 6.4 12.8-6.4 32-19.2 32h-64c0 0 0 0 0 0v32c0 0 0 0 0 0h64z" />
<glyph unicode="&#xe624;" d="M230.4 729.6v0h76.8c6.4 0 6.4 6.4 6.4 6.4s0 64 0 83.2v0c0 12.8 0 25.6 6.4 38.4v6.4c0 0 0 0 0 0l-147.2-147.2c0 0 0 0 0 0s6.4 6.4 6.4 6.4c12.8 0 32 6.4 51.2 6.4v0zM832 742.4c-6.4 32-25.6 44.8-44.8 51.2s-57.6 12.8-108.8 19.2c-38.4 6.4-83.2 6.4-115.2 6.4 6.4 25.6-12.8 44.8-32 51.2-44.8 19.2-121.6 12.8-140.8 6.4-12.8 0-32-6.4-38.4-25.6-6.4-6.4-12.8-19.2-12.8-32 0-6.4 0-32 0-44.8 0-19.2 0-32 0-32 0-19.2-12.8-38.4-25.6-38.4h-76.8c-19.2 0-32 0-44.8-6.4-6.4 0-12.8-6.4-19.2-12.8-12.8-12.8-12.8-32-12.8-51.2 0 0 0-12.8 6.4-38.4 0-19.2 25.6-166.4 44.8-211.2 6.4-19.2 12.8-25.6 32-32 38.4-12.8 121.6-32 160-38.4s64-12.8 83.2 12.8c0 0 0 6.4 6.4 19.2 12.8 38.4 12.8 76.8 12.8 96 0 0 6.4 0 6.4 0 0-12.8 0-76.8 44.8-89.6 19.2-6.4 57.6-12.8 96-19.2s64-19.2 64-108.8c0-57.6-12.8-64-70.4-64-51.2 0-70.4 0-70.4 38.4 0 32 32 25.6 57.6 25.6 12.8 0 0 6.4 0 25.6s12.8 32 0 32c-83.2 0-128 0-128-96 0-89.6 38.4-108.8 153.6-108.8 89.6 0 121.6 0 160 115.2 6.4 19.2 25.6 89.6 38.4 204.8 0 76.8-12.8 294.4-25.6 345.6v0zM678.4 505.6c-12.8 0-19.2 0-32 0 0 19.2 12.8 51.2 44.8 51.2 38.4 0 44.8-32 44.8-57.6-19.2 0-38.4 6.4-57.6 6.4v0z" />
<glyph unicode="&#xe626;" d="M569.6 832h-64c44.8-25.6 64-76.8 64-134.4 0-51.2-25.6-96-70.4-128-32-32-38.4-44.8-38.4-70.4s44.8-57.6 70.4-70.4c70.4-64 83.2-96 83.2-172.8 0-96-96-179.2-243.2-179.2-134.4 0-243.2 64-243.2 153.6 0 134.4 89.6 179.2 224 179.2 12.8 0 25.6 0 44.8 0-25.6 19.2-38.4 38.4-38.4 64 0 19.2 6.4 32 12.8 44.8-6.4 0-12.8 0-19.2 0-108.8 0-172.8 76.8-172.8 179.2 0 96 96 185.6 211.2 185.6 57.6 0 230.4 0 230.4 0l-51.2-51.2zM371.2 352c-83.2 0-153.6-32-153.6-96s64-115.2 147.2-115.2c121.6 0 166.4 51.2 166.4 108.8 0 6.4 0 12.8 0 19.2-32 83.2-128 83.2-160 83.2v0zM473.6 684.8c-6.4 83.2-44.8 140.8-102.4 140.8-64 6.4-115.2-51.2-102.4-128s64-134.4 121.6-134.4c64-6.4 96 44.8 83.2 121.6v0zM787.2 729.6v-115.2h-38.4v115.2h-108.8v38.4h108.8v115.2h38.4v-115.2h108.8v-38.4h-108.8z" />
<glyph unicode="&#xe627;" d="M608 691.2h121.6v128h-121.6c-102.4 0-185.6-76.8-185.6-166.4v-64h-121.6v-128h121.6v-313.6h153.6v313.6h153.6v128h-153.6v70.4c0 19.2 19.2 32 32 32v0z" />
<glyph unicode="&#xe62a;" d="M620.8 883.2v0 0c0 0 0 0 0 0v0zM806.4 326.4c-25.6 0-44.8 25.6-44.8 51.2v192c0 25.6 19.2 51.2 44.8 51.2s51.2-19.2 51.2-51.2v-192c0-32-25.6-51.2-51.2-51.2v0zM217.6 326.4c-25.6 0-51.2 19.2-51.2 51.2v192c0 25.6 19.2 51.2 51.2 51.2 25.6 0 51.2-19.2 51.2-51.2v-192c-6.4-32-25.6-51.2-51.2-51.2v0zM691.2 224h-44.8v-108.8c0-25.6-19.2-51.2-51.2-51.2-25.6 0-51.2 19.2-51.2 51.2v108.8h-70.4v-108.8c0-25.6-19.2-51.2-44.8-51.2s-44.8 19.2-44.8 51.2v108.8h-51.2c-19.2 0-38.4 19.2-38.4 38.4v352h428.8v-358.4c6.4-19.2-6.4-32-32-32v0zM729.6 646.4h-435.2c6.4 64 44.8 121.6 108.8 153.6l-32 57.6c0 6.4 0 6.4 0 12.8 0 0 6.4 0 12.8 0l44.8-57.6c19.2 6.4 51.2 12.8 83.2 12.8s64-6.4 89.6-19.2l44.8 57.6c0 6.4 6.4 6.4 12.8 0 0 0 6.4-6.4 0-12.8l-44.8-51.2c64-25.6 108.8-83.2 115.2-153.6v0zM422.4 755.2c-12.8 0-25.6-12.8-25.6-25.6s12.8-25.6 25.6-25.6c12.8 0 25.6 12.8 25.6 25.6-6.4 19.2-12.8 25.6-25.6 25.6v0zM608 755.2c-12.8 0-25.6-12.8-25.6-25.6s12.8-25.6 25.6-25.6c12.8 0 25.6 12.8 25.6 25.6-6.4 19.2-12.8 25.6-25.6 25.6v0z" />
<glyph unicode="&#xe62b;" d="M659.2 70.4c-44.8 0-89.6 32-134.4 32-51.2 0-96-38.4-140.8-38.4-51.2 0-102.4 44.8-140.8 115.2-51.2 102.4-70.4 217.6-70.4 288 0 134.4 115.2 243.2 236.8 243.2 57.6 0 76.8-44.8 128-44.8 64 0 108.8 44.8 153.6 44.8 70.4 0 115.2-38.4 147.2-83.2v0c-51.2-38.4-76.8-89.6-76.8-153.6 0-76.8 38.4-128 102.4-166.4v-6.4c0-6.4 0-6.4 0-12.8-6.4-83.2-96-217.6-204.8-217.6v0zM531.2 678.4v0c0 19.2-6.4 25.6-6.4 38.4 0 96 70.4 160 147.2 179.2v-6.4c0-12.8 0-19.2 0-32 12.8-96-57.6-153.6-140.8-179.2v0z" />
<glyph unicode="&#xe62c;" d="M678.4 128l-198.4 198.4c6.4 0 19.2 0 25.6 0s12.8 0 19.2 0h339.2c-32-96-102.4-160-185.6-198.4v0zM505.6 627.2c-6.4 0-12.8-6.4-19.2-6.4h-339.2c38.4 89.6 102.4 160 185.6 198.4l198.4-198.4c-6.4 6.4-19.2 6.4-25.6 6.4v0zM416 601.6c-12.8-12.8-25.6-19.2-38.4-38.4l-83.2-89.6-44.8-38.4-108.8-108.8c-12.8 44.8-25.6 96-25.6 147.2 0 44.8 6.4 76.8 19.2 128h281.6zM358.4 115.2c-96 38.4-153.6 102.4-198.4 185.6l32 38.4 160 160c0-6.4 0-12.8 0-19.2s0-12.8 0-19.2v-345.6h6.4zM505.6 83.2c-44.8 0-76.8 6.4-128 19.2v281.6c6.4-6.4 19.2-19.2 25.6-25.6l249.6-249.6c-44.8-12.8-96-25.6-147.2-25.6v0zM876.8 345.6h-281.6c19.2 25.6 38.4 32 44.8 51.2l224 224c25.6-44.8 32-96 32-147.2 0-44.8-6.4-83.2-19.2-128v0zM659.2 460.8c0 6.4 0 12.8 0 19.2s0 12.8 0 19.2v339.2c96-38.4 153.6-102.4 198.4-179.2l-198.4-198.4zM595.2 601.6l-236.8 236.8c44.8 19.2 96 25.6 147.2 25.6 44.8 0 83.2-6.4 128-19.2v-281.6c-25.6 19.2-25.6 25.6-38.4 38.4v0z" />
<glyph unicode="&#xe634;" d="M825.6 64h-665.6c-44.8 0-83.2 38.4-83.2 83.2v665.6c0 44.8 38.4 83.2 83.2 83.2h665.6c44.8 0 83.2-38.4 83.2-83.2v-665.6c0-44.8-32-83.2-83.2-83.2zM428.8 473.6c0 0 0 0 0 0l166.4 96c19.2-12.8 38.4-19.2 57.6-19.2 51.2 0 89.6 38.4 89.6 89.6s-38.4 89.6-89.6 89.6c-57.6 0-96-38.4-96-89.6 0-6.4 0-6.4 0-12.8l-153.6-89.6c-19.2 19.2-44.8 32-70.4 32-51.2 0-89.6-38.4-89.6-89.6 0-57.6 38.4-96 89.6-96 25.6 0 51.2 12.8 64 25.6l160-89.6c0-51.2 44.8-89.6 89.6-89.6 51.2 0 89.6 38.4 89.6 89.6s-38.4 89.6-89.6 89.6c-25.6 6.4-51.2-6.4-70.4-25.6l-147.2 89.6c0-6.4 0 0 0 0z" />
<glyph unicode="&#xe635;" d="M838.4 115.2h-659.2c-44.8 0-83.2 51.2-83.2 96v409.6c0 44.8 38.4 83.2 83.2 83.2h57.6l25.6 64c12.8 44.8 64 76.8 115.2 76.8h262.4c44.8 0 96-32 115.2-76.8l25.6-64h64c44.8 0 89.6-44.8 89.6-89.6v-403.2c-6.4-44.8-51.2-96-96-96zM512 672c-179.2-6.4-243.2-153.6-243.2-236.8s19.2-243.2 243.2-249.6c224 6.4 243.2 166.4 243.2 249.6s-64 230.4-243.2 236.8zM512 236.8c-102.4 0-192 83.2-192 192 0 102.4 83.2 192 192 192s192-83.2 192-192c0-108.8-89.6-192-192-192z" />
<glyph unicode="&#xe636;" d="M563.2 742.4v-76.8c0-25.6-19.2-51.2-44.8-51.2s-51.2 25.6-51.2 51.2v76.8c-6.4 25.6 19.2 51.2 44.8 51.2 32 0 51.2-25.6 51.2-51.2zM620.8 64h-211.2c-102.4 0-179.2 83.2-179.2 179.2v473.6c0 96 83.2 179.2 179.2 179.2h70.4v-83.2c-32-12.8-51.2-38.4-51.2-70.4v-76.8c0-32 19.2-64 51.2-70.4v-57.6h64v51.2c32 12.8 51.2 38.4 51.2 70.4v83.2c0 32-19.2 64-51.2 70.4v83.2h76.8c102.4 0 172.8-83.2 172.8-179.2v-467.2c0-102.4-76.8-185.6-172.8-185.6z" />
<glyph unicode="&#xe637;" d="M844.8 883.2h-665.6c-44.8 0-83.2-38.4-83.2-83.2v-460.8c0-44.8 38.4-83.2 83.2-83.2h672c44.8 0 83.2 38.4 83.2 83.2v467.2c-6.4 44.8-44.8 76.8-89.6 76.8zM876.8 454.4c0-32-25.6-51.2-51.2-51.2h-627.2c-32 0-51.2 25.6-51.2 51.2v326.4c0 32 25.6 51.2 51.2 51.2h620.8c32 0 51.2-25.6 51.2-51.2v-326.4zM633.6 128v115.2h-243.2v-115.2l-51.2-25.6c0 0-12.8-25.6 19.2-25.6h300.8c0 0 38.4 12.8 25.6 19.2-12.8 12.8-51.2 32-51.2 32z" />
<glyph unicode="&#xe638;" d="M83.2 588.8c0-44.8 6.4-83.2 25.6-121.6s38.4-70.4 64-96c25.6-25.6 57.6-51.2 96-64 38.4-19.2 76.8-25.6 121.6-25.6 32 0 64 6.4 96 12.8 32 12.8 57.6 25.6 83.2 44.8l262.4-275.2c12.8 6.4 32 12.8 44.8 25.6s25.6 32 32 51.2l-268.8 268.8c19.2 25.6 32 51.2 44.8 83.2s12.8 64 12.8 96c0 44.8-6.4 83.2-25.6 121.6s-38.4 70.4-64 96c-25.6 25.6-57.6 51.2-96 64s-76.8 25.6-121.6 25.6c-44.8 0-83.2-6.4-121.6-25.6-38.4-12.8-70.4-38.4-96-64s-51.2-64-64-96c-19.2-44.8-25.6-83.2-25.6-121.6zM172.8 588.8c0 32 6.4 57.6 19.2 83.2s25.6 51.2 44.8 70.4c19.2 19.2 38.4 32 70.4 44.8 25.6 12.8 57.6 19.2 83.2 19.2 32 0 57.6-6.4 83.2-19.2s51.2-25.6 70.4-44.8c19.2-19.2 38.4-44.8 44.8-70.4 12.8-25.6 19.2-57.6 19.2-83.2 0-32-6.4-57.6-19.2-83.2-6.4-32-25.6-57.6-44.8-76.8s-44.8-32-70.4-44.8c-25.6-12.8-51.2-19.2-83.2-19.2s-57.6 6.4-83.2 19.2c-32 12.8-51.2 25.6-70.4 44.8s-38.4 44.8-51.2 70.4c-6.4 25.6-12.8 57.6-12.8 89.6z" />
<glyph unicode="&#xe639;" d="M902.4 704c-19.2 38.4-38.4 70.4-64 96s-57.6 51.2-96 64c-38.4 25.6-83.2 32-121.6 32-44.8 0-83.2-6.4-121.6-25.6s-70.4-38.4-102.4-64c-25.6-25.6-51.2-64-64-96-19.2-44.8-25.6-83.2-25.6-121.6 0-32 6.4-64 12.8-96 12.8-32 25.6-57.6 44.8-83.2l-268.8-268.8c6.4-19.2 12.8-38.4 32-51.2 12.8-12.8 32-19.2 44.8-25.6l268.8 268.8c25.6-19.2 51.2-32 83.2-44.8s64-12.8 96-12.8c44.8 0 83.2 6.4 121.6 25.6s70.4 38.4 96 64c25.6 25.6 51.2 64 64 96 19.2 38.4 25.6 76.8 25.6 121.6s-6.4 83.2-25.6 121.6zM819.2 499.2c-12.8-25.6-25.6-51.2-44.8-70.4s-44.8-32-70.4-44.8c-25.6-12.8-57.6-19.2-83.2-19.2-32 0-64 6.4-89.6 19.2s-51.2 25.6-70.4 44.8c-19.2 19.2-32 44.8-44.8 70.4s-19.2 57.6-19.2 89.6c0 32 6.4 57.6 19.2 83.2s25.6 51.2 44.8 70.4c19.2 19.2 44.8 38.4 70.4 44.8 25.6 12.8 57.6 19.2 83.2 19.2 32 0 57.6-6.4 83.2-19.2s51.2-25.6 70.4-44.8c19.2-19.2 38.4-44.8 44.8-70.4 12.8-25.6 19.2-57.6 19.2-83.2 6.4-32 0-64-12.8-89.6z" />
<glyph unicode="&#xe63a;" d="M288 736h-166.4c-12.8 0-25.6-6.4-25.6-19.2v-115.2c0-12.8 12.8-19.2 25.6-19.2h166.4c19.2 0 32 6.4 32 19.2v115.2c0 6.4-12.8 19.2-32 19.2zM288 518.4h-166.4c-12.8 0-25.6-6.4-25.6-19.2v-115.2c0-12.8 12.8-19.2 25.6-19.2h166.4c19.2 0 32 12.8 32 25.6v108.8c0 12.8-12.8 19.2-32 19.2zM288 307.2h-166.4c-12.8 0-25.6-6.4-25.6-19.2v-115.2c0-12.8 12.8-19.2 25.6-19.2h166.4c12.8 0 25.6 6.4 25.6 19.2v115.2c6.4 12.8-6.4 19.2-25.6 19.2zM902.4 736h-480c-12.8 0-25.6-6.4-25.6-19.2v-115.2c0-12.8 12.8-19.2 25.6-19.2h480c12.8 0 25.6 6.4 25.6 19.2v115.2c0 6.4-12.8 19.2-25.6 19.2zM902.4 518.4h-480c-19.2 0-32-6.4-32-19.2v-115.2c0-12.8 12.8-19.2 25.6-19.2h480c12.8 0 25.6 6.4 25.6 19.2v115.2c6.4 12.8-6.4 19.2-19.2 19.2zM902.4 307.2h-480c-12.8 0-25.6-6.4-25.6-19.2v-115.2c0-12.8 12.8-19.2 25.6-19.2h480c12.8 0 25.6 6.4 25.6 19.2v115.2c0 12.8-12.8 19.2-25.6 19.2z" />
<glyph unicode="&#xe63b;" d="M377.6 480l332.8 332.8-83.2 83.2-416-416 416-416 83.2 83.2-332.8 332.8z" />
<glyph unicode="&#xe63c;" d="M595.2 480l-332.8 332.8 83.2 83.2 416-416-416-416-83.2 83.2 332.8 332.8z" />
<glyph unicode="&#xe63d;" d="M512 64c-230.4 0-416 185.6-416 416s185.6 416 416 416c230.4 0 416-185.6 416-416s-185.6-416-416-416zM697.6 550.4v115.2h-51.2v-57.6l-134.4 128-249.6-256h70.4v-192c0-19.2 19.2-38.4 38.4-38.4 0 0 44.8 0 96 0 0 51.2 0 89.6 0 115.2 0 6.4 6.4 25.6 25.6 32 25.6 0 25.6 0 51.2 0 12.8-6.4 25.6-19.2 25.6-32 0-6.4 0-76.8 0-115.2 51.2 0 96 0 96 0 19.2 0 38.4 19.2 38.4 38.4v192h70.4l-76.8 70.4z" />
</font>
</defs>
</svg>
